<?xml version="1.0" standalone="no"?>
<!DOCTYPE svg PUBLIC "-//W3C//DTD SVG 20010904//EN"
 "http://www.w3.org/TR/2001/REC-SVG-20010904/DTD/svg10.dtd">
<svg version="1.0" xmlns="http://www.w3.org/2000/svg"
 width="1024.000000pt" height="1024.000000pt" viewBox="0 0 1024.000000 1024.000000"
 preserveAspectRatio="xMidYMid meet">
<metadata>
Created by potrace 1.11, written by Peter Selinger 2001-2013
</metadata>
<g transform="translate(0.000000,1024.000000) scale(0.100000,-0.100000)"
fill="#000000" stroke="none">
<path d="M3538 10235 c-2 -3 -29 -7 -59 -9 -30 -2 -54 -5 -54 -6 0 -1 -9 -3
-20 -4 -50 -6 -133 -22 -137 -25 -2 -2 -14 -5 -27 -7 -44 -8 -230 -73 -289
-101 -31 -14 -59 -27 -62 -27 -5 -1 -130 -71 -161 -91 -9 -5 -31 -18 -50 -29
-18 -10 -39 -25 -46 -32 -8 -7 -34 -28 -58 -45 -25 -18 -45 -36 -45 -41 0 -4
-5 -8 -12 -8 -18 0 -206 -195 -274 -285 -34 -44 -80 -111 -103 -150 -23 -38
-47 -77 -52 -85 -33 -54 -136 -308 -143 -354 -1 -6 -5 -17 -9 -23 -5 -7 -6
-13 -4 -13 3 0 -1 -20 -8 -45 l-14 -44 602 -1 c331 0 623 -2 648 -4 114 -10
219 -98 252 -211 46 -161 -37 -316 -203 -374 -8 -3 -312 -6 -675 -8 l-660 -4
0 288 c1 159 -1 294 -3 301 -9 27 -399 6 -472 -25 -8 -3 -23 -8 -33 -10 -56
-10 -286 -125 -307 -153 -3 -3 -16 -14 -30 -23 -42 -29 -131 -119 -174 -177
-22 -30 -43 -57 -46 -60 -18 -18 -95 -174 -114 -230 -43 -132 -50 -176 -50
-345 0 -161 30 -298 92 -420 14 -27 25 -53 24 -57 -1 -5 2 -8 7 -8 5 0 14 -13
20 -30 5 -16 15 -30 20 -30 6 0 11 -5 11 -11 0 -14 58 -87 118 -149 45 -46
191 -160 205 -160 4 0 24 -10 45 -23 39 -24 186 -82 232 -92 88 -19 184 -28
303 -29 81 0 148 -3 148 -6 1 -3 2 -142 3 -310 l2 -306 -139 -1 c-76 -1 -155
-5 -175 -8 -21 -4 -55 -8 -77 -10 -72 -6 -257 -74 -317 -117 -16 -11 -28 -17
-28 -13 0 5 -69 -44 -128 -90 -48 -36 -149 -149 -192 -212 -75 -110 -136 -250
-156 -358 -2 -11 -8 -42 -13 -70 -12 -62 -7 -272 8 -343 74 -361 339 -656 691
-772 63 -21 77 -24 138 -35 66 -11 136 -16 257 -18 l130 -2 0 -310 0 -310 645
-1 c355 0 656 -3 670 -5 68 -13 200 -114 200 -154 0 -8 4 -15 8 -15 12 0 32
-109 27 -150 -8 -84 -44 -152 -109 -205 -86 -70 -59 -68 -779 -69 -427 -1
-651 2 -655 9 -4 5 -7 136 -7 290 0 154 -3 285 -7 291 -7 11 -289 11 -340 0
-16 -3 -40 -9 -55 -12 -16 -3 -37 -7 -48 -9 -37 -6 -149 -47 -207 -76 -32 -16
-61 -30 -65 -31 -5 0 -42 -26 -83 -56 -227 -167 -378 -409 -418 -672 -16 -105
-6 -333 18 -394 5 -13 6 -27 3 -30 -4 -3 -1 -6 6 -6 7 0 10 -4 6 -9 -6 -11 47
-149 77 -201 110 -186 260 -333 429 -421 24 -13 46 -24 49 -24 3 -1 23 -9 45
-19 42 -18 155 -51 215 -61 52 -9 121 -13 255 -14 l120 -1 0 -583 c0 -557 1
-585 20 -642 24 -72 79 -136 150 -174 l50 -26 2715 0 c2658 0 2959 3 3085 30
17 3 44 9 60 11 44 8 263 81 312 104 24 11 45 20 47 20 2 0 46 23 97 52 214
118 381 255 545 450 11 13 41 53 65 89 24 35 47 66 50 69 7 6 98 173 120 220
43 90 93 230 103 282 2 15 7 31 9 35 3 5 8 24 11 43 3 19 10 60 16 90 6 30 14
84 17 120 4 36 7 1939 7 4230 l0 4165 -26 51 c-34 64 -84 115 -145 145 l-48
24 -2796 2 c-1538 2 -2798 1 -2801 -2z m-1663 -2447 c0 -275 -3 -419 -10 -421
-17 -5 -227 0 -265 7 -69 12 -84 16 -94 26 -5 5 -18 10 -28 10 -10 0 -18 4
-18 8 0 4 -13 15 -29 25 -109 64 -185 206 -184 344 1 65 37 203 53 203 6 0 10
6 10 13 0 21 67 94 118 129 88 61 149 75 307 74 l140 -1 0 -417z m1310 -1652
c94 -18 211 -118 222 -190 2 -11 7 -24 12 -30 4 -6 7 -41 6 -77 -4 -108 -64
-211 -149 -256 -75 -39 -93 -40 -757 -40 l-644 0 0 295 c0 269 2 296 17 301
25 9 1247 5 1293 -3z m-1317 -601 c4 -4 7 -193 7 -421 l0 -414 -30 -1 c-148
-5 -292 5 -309 22 -6 5 -18 9 -28 9 -10 0 -18 5 -18 12 0 6 -3 9 -6 5 -10 -10
-88 48 -134 100 -69 78 -102 167 -102 273 0 63 26 178 42 190 4 3 14 19 23 35
22 40 43 63 97 106 66 52 127 76 215 86 28 3 51 6 52 6 5 6 186 -2 191 -8z
m3934 -844 c3 -1 7 -493 7 -1093 0 -601 2 -1111 5 -1133 3 -22 8 -69 11 -105
4 -36 9 -74 11 -85 3 -11 7 -38 10 -60 4 -21 12 -56 19 -76 8 -21 11 -40 8
-43 -3 -3 0 -12 7 -21 7 -8 10 -15 6 -15 -5 0 14 -53 47 -130 6 -14 11 -27 12
-30 17 -67 178 -270 215 -270 5 0 10 -4 10 -9 0 -10 140 -81 161 -81 9 0 19
-3 23 -7 8 -8 8 -8 113 -26 82 -14 261 -15 338 -2 347 58 524 254 611 675 13
63 26 142 29 175 10 103 18 378 12 425 -2 14 0 32 5 41 4 9 5 19 1 22 -9 10
-9 257 1 257 5 0 3 6 -3 13 -6 8 -9 16 -6 19 5 5 7 92 2 128 -2 14 0 32 5 41
4 9 5 19 2 22 -5 5 -7 94 -5 302 1 50 0 101 -2 115 -2 14 0 32 5 41 4 9 5 19
1 22 -9 10 -9 257 1 257 5 0 3 6 -3 13 -6 8 -9 16 -6 19 5 5 7 92 2 128 -2 14
0 32 5 41 4 9 5 19 1 22 -9 10 -4 400 6 406 7 5 738 6 787 2 12 -1 12 -2247
-1 -2356 -11 -105 -13 -120 -15 -125 -1 -3 -2 -8 -1 -12 0 -4 -4 -31 -10 -60
-6 -29 -12 -65 -14 -80 -2 -16 -12 -58 -21 -95 -9 -38 -17 -74 -17 -80 0 -7
-5 -13 -10 -13 -6 0 -8 -3 -5 -6 18 -17 -153 -398 -185 -412 -4 -2 -14 -17
-23 -34 -41 -79 -232 -260 -341 -323 -18 -11 -33 -23 -33 -27 0 -4 -3 -7 -7
-6 -5 1 -35 -12 -68 -29 -70 -36 -185 -84 -185 -77 0 3 -9 0 -21 -6 -11 -6
-28 -13 -37 -15 -9 -2 -44 -10 -77 -18 -70 -19 -110 -27 -145 -32 -14 -2 -25
-4 -25 -5 0 -2 -26 -5 -145 -15 -155 -14 -489 -8 -570 10 -14 3 -45 8 -70 11
-64 7 -257 58 -337 90 -136 54 -333 163 -333 185 0 4 -9 11 -20 14 -32 10
-180 161 -236 240 -73 103 -189 348 -198 420 -2 11 -6 28 -9 37 -14 37 -19 54
-23 78 -5 27 -21 109 -30 150 -6 32 -14 92 -19 150 -2 25 -4 45 -5 45 -3 0
-11 128 -13 225 -2 58 -6 111 -10 118 -5 6 -5 12 0 12 4 0 8 67 8 150 0 93 -4
150 -10 150 -6 0 -6 3 0 8 14 9 14 65 0 74 -7 5 -7 8 1 8 11 0 12 60 0 78 -4
7 -4 12 1 12 4 0 8 67 8 150 0 93 -4 150 -10 150 -6 0 -6 3 0 8 6 4 11 21 11
37 0 17 -5 33 -11 37 -7 5 -7 8 1 8 11 0 12 60 0 78 -4 7 -4 12 1 12 4 0 8 67
8 150 0 93 -4 150 -10 150 -6 0 -6 3 0 8 6 4 11 21 11 37 0 17 -5 33 -11 37
-7 5 -6 8 1 8 7 0 10 15 8 38 -2 20 -6 78 -9 127 -3 50 -7 97 -10 105 -2 8 -7
49 -10 90 -3 41 -8 98 -11 125 -2 28 -7 86 -10 130 l-5 80 423 -2 c233 0 426
-2 430 -2z m-3927 -2236 l0 -420 -135 0 c-158 1 -177 4 -254 40 -228 108 -310
399 -170 606 70 104 168 168 284 186 19 3 36 6 37 7 1 0 55 1 120 1 l118 0 0
-420z"/>
</g>
</svg>
